<?xml version="1.0" encoding="utf-8"?>
<!-- Generator: Adobe Illustrator 24.0.2, SVG Export Plug-In . SVG Version: 6.00 Build 0)  -->
<svg version="1.1" xmlns="http://www.w3.org/2000/svg" xmlns:xlink="http://www.w3.org/1999/xlink" x="0px" y="0px"
	 viewBox="0 0 750 500" style="enable-background:new 0 0 750 500;" xml:space="preserve">
<style type="text/css">
	.st0{display:none;}
	.st1{display:inline;fill:#FFFFFF;}
	.st2{fill:none;stroke:#C0CCD8;stroke-miterlimit:10;}
	.st3{fill:none;stroke:#C0CCD8;stroke-linejoin:round;stroke-miterlimit:10;}
	.st4{fill:none;stroke:#C0CCD8;stroke-width:3;stroke-miterlimit:10;}
	.st5{fill:#FFFFFF;stroke:#C0CCD8;stroke-linejoin:round;stroke-miterlimit:10;}
	.st6{fill:#F76652;}
	.st7{fill:#C0CCD8;}
	.st8{fill:none;stroke:#C0CCD8;stroke-linecap:round;stroke-linejoin:round;stroke-miterlimit:10;}
	.st9{fill:#475577;}
	.st10{fill:#717A91;}
	.st11{fill:none;stroke:#544943;stroke-width:1.5;stroke-miterlimit:10;}
	.st12{opacity:0.45;}
	.st13{fill:#8E9DB2;}
	.st14{fill:#FFCBBB;}
	.st15{fill:#E6E8EF;}
	.st16{fill:#B9B5B2;}
	.st17{fill:none;stroke:#846A6A;stroke-miterlimit:10;}
	.st18{fill:#173789;}
	.st19{fill:#FCA32D;}
	.st20{fill:none;stroke:#CE680D;stroke-miterlimit:10;}
	.st21{fill:#FFB548;}
	.st22{fill:none;stroke:#ED841B;stroke-miterlimit:10;}
	.st23{fill:none;stroke:#ED841B;stroke-miterlimit:10;stroke-dasharray:3,2;}
	.st24{fill:#E6E8EF;stroke:#846A6A;stroke-linejoin:round;stroke-miterlimit:10;}
	.st25{fill:#FFFFFF;}
	.st26{fill:none;stroke:#EF977F;stroke-miterlimit:10;}
	.st27{fill:#8EBCA2;}
	.st28{fill:#A2CCB6;}
	.st29{fill:#597F6E;}
	.st30{fill:#F2F5F9;}
	.st31{fill:#E7EAF2;}
	.st32{opacity:0.45;fill:#8E9DB2;}
	.st33{fill:#C6D2E0;}
	.st34{opacity:0.65;}
	.st35{opacity:0.55;}
	.st36{fill:url(#SVGID_1_);}
	.st37{fill:#E8EAEF;}
	.st38{fill:none;stroke:#475577;stroke-width:2;stroke-miterlimit:10;}
	.st39{font-family:'Sniglet-Regular';}
	.st40{font-size:20.3839px;}
</style>
<g id="BACKGROUND" class="st0">
	<rect class="st1" width="750" height="500"/>
</g>
<g id="OBJECTS">
	<g>
		<g>
			<g>
				<path class="st2" d="M369.44,137.86H252.1c-1.77,0-3.21-1.44-3.21-3.21V66.31c0-1.77,1.44-3.21,3.21-3.21h117.34
					c1.77,0,3.21,1.44,3.21,3.21v68.34C372.64,136.42,371.21,137.86,369.44,137.86z"/>
				<line class="st2" x1="248.89" y1="76.65" x2="372.64" y2="76.65"/>
				<circle class="st2" cx="256.88" cy="69.95" r="1.98"/>
				<path class="st2" d="M267,69.95c0,1.09-0.89,1.98-1.98,1.98c-1.09,0-1.98-0.89-1.98-1.98s0.89-1.98,1.98-1.98
					C266.11,67.97,267,68.86,267,69.95z"/>
				<path class="st2" d="M275.14,69.95c0,1.09-0.89,1.98-1.98,1.98c-1.09,0-1.98-0.89-1.98-1.98s0.89-1.98,1.98-1.98
					C274.25,67.97,275.14,68.86,275.14,69.95z"/>
			</g>
			<g>
				<g>
					<g>
						<path class="st3" d="M183.97,145.68h29.26c2.83,0,5.12-2.29,5.12-5.12v-29.26c0-2.83-2.29-5.12-5.12-5.12h-29.26
							c-2.83,0-5.12,2.29-5.12,5.12v29.26C178.85,143.38,181.14,145.68,183.97,145.68z"/>
					</g>
					<g>
						<circle class="st4" cx="198.6" cy="125.92" r="11.31"/>
						<line class="st4" x1="206.24" y1="117.94" x2="190.27" y2="133.91"/>
					</g>
				</g>
			</g>
			<path class="st5" d="M480.24,136.69l-8.19-8.49H345.96c-5.9,0-10.68-4.78-10.68-10.68V51.96c0-5.9,4.78-10.68,10.68-10.68h126.65
				c5.9,0,10.68,4.78,10.68,10.68v83.5C483.29,137.05,481.35,137.84,480.24,136.69z"/>
			<g>
				<g>
					<path class="st6" d="M385.96,98.89h-5.42v9.53h-13.14v-9.53h-19.64v-9.77l20.48-29.95h12.3v29.78h5.42V98.89z M367.39,88.95
						v-5.73c0-1.08,0.04-2.53,0.12-4.36c0.08-1.83,0.14-2.79,0.19-2.88h-0.37c-0.76,1.73-1.63,3.35-2.59,4.85l-5.46,8.12H367.39z"/>
					<path class="st6" d="M427.01,83.86c0,8.71-1.46,15.1-4.38,19.15c-2.92,4.05-7.39,6.08-13.41,6.08
						c-5.88,0-10.32-2.12-13.31-6.35c-2.99-4.23-4.48-10.53-4.48-18.88c0-8.76,1.46-15.18,4.38-19.27
						c2.92-4.09,7.39-6.13,13.41-6.13c5.86,0,10.29,2.13,13.29,6.38C425.51,69.1,427.01,75.44,427.01,83.86z M404.67,83.86
						c0,5.57,0.35,9.4,1.04,11.49c0.7,2.09,1.86,3.13,3.5,3.13c1.66,0,2.83-1.08,3.52-3.23c0.68-2.16,1.03-5.95,1.03-11.39
						c0-5.46-0.35-9.28-1.04-11.47c-0.7-2.19-1.87-3.28-3.5-3.28c-1.64,0-2.81,1.06-3.5,3.17
						C405.02,74.39,404.67,78.25,404.67,83.86z"/>
					<path class="st6" d="M470.82,98.89h-5.42v9.53h-13.14v-9.53h-19.64v-9.77l20.48-29.95h12.3v29.78h5.42V98.89z M452.25,88.95
						v-5.73c0-1.08,0.04-2.53,0.12-4.36c0.08-1.83,0.14-2.79,0.18-2.88h-0.37c-0.76,1.73-1.63,3.35-2.59,4.85l-5.46,8.12H452.25z"/>
				</g>
			</g>
			<g>
				<g>
					<g>
						<path class="st3" d="M599.05,260.69h29.26c2.83,0,5.12-2.29,5.12-5.12V226.3c0-2.83-2.29-5.12-5.12-5.12h-29.26
							c-2.83,0-5.12,2.29-5.12,5.12v29.26C593.93,258.4,596.22,260.69,599.05,260.69z"/>
					</g>
					<g>
						<g>
							<path class="st7" d="M626.41,252.03c-0.15,0.05-0.31,0.08-0.47,0.08l-24.52,0.01c-0.51,0-0.99-0.28-1.25-0.72
								c-0.26-0.44-0.26-0.99,0-1.44l12.25-21.24c0.26-0.44,0.73-0.72,1.24-0.72c0.51,0,0.99,0.27,1.25,0.72l12.27,21.23
								c0.26,0.44,0.26,0.99,0,1.44C627.01,251.69,626.73,251.92,626.41,252.03z M602.1,250.29l23.17-0.01l-11.59-20.06
								L602.1,250.29z"/>
						</g>
						<path class="st7" d="M613.68,246.07L613.68,246.07c-0.46,0-0.85-0.37-0.87-0.83l-0.5-8.36c-0.04-0.78,0.58-1.42,1.36-1.42l0,0
							c0.78,0,1.4,0.65,1.36,1.42l-0.49,8.36C614.52,245.71,614.14,246.07,613.68,246.07z"/>
						<path class="st7" d="M614.56,248.09c0,0.49-0.4,0.88-0.88,0.88c-0.49,0-0.88-0.4-0.88-0.88c0-0.49,0.4-0.88,0.88-0.88
							C614.17,247.2,614.56,247.6,614.56,248.09z"/>
					</g>
				</g>
			</g>
			<path class="st8" d="M96.44,190.1c0,1.23-1,2.23-2.23,2.23c-1.23,0-2.23-1-2.23-2.23c0-1.23,1-2.23,2.23-2.23
				C95.44,187.87,96.44,188.87,96.44,190.1z"/>
			<path class="st8" d="M470.82,308.91c0,1.23-1,2.23-2.23,2.23c-1.23,0-2.23-1-2.23-2.23c0-1.23,1-2.23,2.23-2.23
				C469.82,306.69,470.82,307.68,470.82,308.91z"/>
			<path class="st8" d="M623.94,125.92c0,1.23-1,2.23-2.23,2.23s-2.23-1-2.23-2.23c0-1.23,1-2.23,2.23-2.23
				S623.94,124.69,623.94,125.92z"/>
			<path class="st8" d="M503.66,57c0,1.23-1,2.23-2.23,2.23c-1.23,0-2.23-1-2.23-2.23c0-1.23,1-2.23,2.23-2.23
				C502.66,54.78,503.66,55.77,503.66,57z"/>
			<g>
				<line class="st8" x1="619.49" y1="198.8" x2="619.49" y2="205.7"/>
				<line class="st8" x1="622.94" y1="202.25" x2="616.03" y2="202.25"/>
			</g>
			<g>
				<line class="st8" x1="439.1" y1="331.74" x2="439.1" y2="338.64"/>
				<line class="st8" x1="442.55" y1="335.19" x2="435.65" y2="335.19"/>
			</g>
			<g>
				<line class="st8" x1="293.16" y1="44.28" x2="293.16" y2="51.18"/>
				<line class="st8" x1="296.61" y1="47.73" x2="289.71" y2="47.73"/>
			</g>
			<g>
				<line class="st8" x1="138.7" y1="110.97" x2="138.7" y2="117.88"/>
				<line class="st8" x1="142.15" y1="114.43" x2="135.25" y2="114.43"/>
			</g>
			<g>
				<line class="st8" x1="127.46" y1="269.85" x2="127.46" y2="276.75"/>
				<line class="st8" x1="130.91" y1="273.3" x2="124.01" y2="273.3"/>
			</g>
			<g>
				<line class="st8" x1="518.61" y1="83.35" x2="518.61" y2="90.25"/>
				<line class="st8" x1="522.06" y1="86.8" x2="515.16" y2="86.8"/>
			</g>
			<path class="st2" d="M178.8,230.56h-69.05c-1.21,0-2.18-0.98-2.18-2.18l0,0c0-1.21,0.98-2.18,2.18-2.18h69.05
				c1.21,0,2.18,0.98,2.18,2.18l0,0C180.99,229.58,180.01,230.56,178.8,230.56z"/>
			<path class="st2" d="M585.37,175.42h-69.05c-1.21,0-2.18-0.98-2.18-2.18l0,0c0-1.21,0.98-2.18,2.18-2.18h69.05
				c1.21,0,2.18,0.98,2.18,2.18l0,0C587.55,174.44,586.57,175.42,585.37,175.42z"/>
			<path class="st7" d="M595.47,190.1h-25.53c-0.6,0-1.09-0.49-1.09-1.09l0,0c0-0.6,0.49-1.09,1.09-1.09h25.53
				c0.6,0,1.09,0.49,1.09,1.09l0,0C596.57,189.61,596.08,190.1,595.47,190.1z"/>
			<path class="st7" d="M527.93,138.07H502.4c-0.6,0-1.09-0.49-1.09-1.09l0,0c0-0.6,0.49-1.09,1.09-1.09h25.53
				c0.6,0,1.09,0.49,1.09,1.09l0,0C529.02,137.58,528.53,138.07,527.93,138.07z"/>
			<path class="st7" d="M153.14,211.26h-19.53c-0.6,0-1.09-0.49-1.09-1.09l0,0c0-0.6,0.49-1.09,1.09-1.09h19.53
				c0.6,0,1.09,0.49,1.09,1.09l0,0C154.23,210.77,153.74,211.26,153.14,211.26z"/>
			<g>
				<path class="st3" d="M547.25,114.88h21.14c2.04,0,3.7-1.66,3.7-3.7V90.04c0-2.04-1.66-3.7-3.7-3.7h-21.14
					c-2.04,0-3.7,1.66-3.7,3.7v21.14C543.55,113.22,545.21,114.88,547.25,114.88z"/>
				<g>
					<g>
						<path class="st7" d="M561.86,99.41l-0.5,2.45h2.73v2.18h-3.14l-0.81,4.29h-2.32l0.82-4.29h-3l-0.8,4.29h-2.27l0.78-4.29h-2.51
							v-2.18h2.93l0.5-2.45h-2.66V97.2h3.05l0.81-4.3h2.31l-0.81,4.3H560l0.82-4.3h2.27l-0.82,4.3h2.54v2.21H561.86z M556.05,101.86
							h3.02l0.5-2.45h-3.02L556.05,101.86z"/>
					</g>
				</g>
			</g>
		</g>
		<g>
			<g>
				<path class="st9" d="M317.5,312.32l-20.05-131.49h-90.3l21.64,139.34c1.47,9.44,9.34,16.09,19.06,16.09h151.83l1.12-12.77
					h-70.12C323.95,323.49,318.5,318.87,317.5,312.32z"/>
				<path class="st10" d="M232.04,312.32l-19.31-126.63c-0.44-2.85-2.81-4.87-5.75-4.87h-0.18c-4.11,0-7.48,3.85-6.86,7.85
					l20.43,131.49c1.47,9.44,9.34,16.09,19.06,16.09h97.79l1.12-12.77h-93.12C238.49,323.49,233.03,318.87,232.04,312.32z"/>
				<g>
					<g>
						<g>
							<line class="st11" x1="293.16" y1="336.25" x2="293.16" y2="408.03"/>
						</g>
						<g>
							<g>
								<path class="st11" d="M252.93,414.37L252.93,414.37c0-3.5,2.84-6.34,6.34-6.34h67.79c3.5,0,6.34,2.84,6.34,6.34v0"/>
							</g>
							<g>
								<path class="st11" d="M286.23,414.37L286.23,414.37c0-3.5,2.84-6.34,6.34-6.34"/>
							</g>
							<g>
								<g>
									<path class="st10" d="M259.33,420.77c0,3.54-2.87,6.4-6.4,6.4c-3.54,0-6.4-2.87-6.4-6.4c0-3.54,2.87-6.4,6.4-6.4
										C256.46,414.37,259.33,417.24,259.33,420.77z"/>
								</g>
								<g class="st12">
									<path class="st13" d="M255.28,420.77c0,1.3-1.05,2.35-2.35,2.35s-2.35-1.05-2.35-2.35c0-1.3,1.05-2.35,2.35-2.35
										S255.28,419.47,255.28,420.77z"/>
								</g>
							</g>
							<g>
								<path class="st10" d="M292.63,420.77c0,3.54-2.87,6.4-6.4,6.4c-3.54,0-6.4-2.87-6.4-6.4c0-3.54,2.87-6.4,6.4-6.4
									C289.76,414.37,292.63,417.24,292.63,420.77z"/>
							</g>
							<g class="st12">
								<path class="st13" d="M288.58,420.77c0,1.3-1.05,2.35-2.35,2.35c-1.3,0-2.35-1.05-2.35-2.35c0-1.3,1.05-2.35,2.35-2.35
									C287.52,418.42,288.58,419.47,288.58,420.77z"/>
							</g>
							<g>
								<g>
									<path class="st10" d="M339.8,420.77c0,3.54-2.87,6.4-6.4,6.4c-3.54,0-6.4-2.87-6.4-6.4c0-3.54,2.87-6.4,6.4-6.4
										C336.93,414.37,339.8,417.24,339.8,420.77z"/>
								</g>
								<g class="st12">
									<path class="st13" d="M335.75,420.77c0,1.3-1.05,2.35-2.35,2.35c-1.3,0-2.35-1.05-2.35-2.35c0-1.3,1.05-2.35,2.35-2.35
										C334.7,418.42,335.75,419.47,335.75,420.77z"/>
								</g>
							</g>
						</g>
					</g>
				</g>
			</g>
			<g>
				<g>
					<path class="st14" d="M363.74,194.94l22.89-34.19l7.09,1.48c-5.42,18.25-9,25.47-9,25.47"/>
					<path class="st14" d="M390.07,167.89l3.65-5.66c0,0,6.79-1.56,9.26-2.82c2.47-1.26,4.11-3.49,4.8-5.38
						c0.53-1.45,0.3-5.69-0.32-5.76c-1.46-0.16-4.37,5.28-5.74,5.6c-1.36,0.32-5.79-0.01-8.22,0.31c-4.09,0.54-5.82,4.37-5.82,4.37
						l-3.74,6.79"/>
					<polyline class="st15" points="378.7,170.76 382.71,164.93 393.11,169.6 389.81,178.45 					"/>
					<path class="st16" d="M295.19,158.57c0,0,16.95-7.8,31.87,5.48c14.93,13.28,25.03,25.61,30.51,29.61l22.49-25.87l12.56,5.9
						c-3.31,18.73-12.61,48.61-35.35,51.69c-24.61,3.33-60.7-27.01-60.7-27.01"/>
					<line class="st17" x1="350.28" y1="202.25" x2="357.57" y2="193.66"/>
				</g>
				<path class="st18" d="M386.23,416.36l-1.9,7.31c-0.46,1.77,0.88,3.51,2.71,3.51h22.14c1.33,0,2.41-1.08,2.41-2.41l0,0
					c0-1.05-0.68-1.98-1.68-2.3l-15.13-6.11"/>
				<path class="st14" d="M373.47,302.22c-3.54,37.15,12.76,114.14,12.76,114.14s3.87,4.68,8.55,0c0,0,3.93-73.41,8.06-106.41"/>
				<path class="st19" d="M320.65,258.7l25.41,13.33v0.26c0,0,51.85-3.48,59.7,15.03c12.28,28.99,14.37,123.27,14.37,123.27h-37.95
					c0,0-14.13-79.19-18.95-84.02c-4.83-4.83-24.74-4.47-61.36-4.47c-41.13,0-21.05-53.03-5.74-57.58"/>
				<path class="st20" d="M384.8,410.59c0,0-11.28-81.72-19.57-87.71c-10.12-7.32-57.92-2.54-57.92-2.54"/>
				<path class="st18" d="M306.65,416.36l-1.9,7.31c-0.46,1.77,0.88,3.51,2.71,3.51h22.14c1.33,0,2.41-1.08,2.41-2.41l0,0
					c0-1.05-0.68-1.98-1.68-2.3l-15.13-6.11"/>
				<path class="st14" d="M310.33,302.22c-3.54,37.15-3.69,114.14-3.69,114.14s3.87,4.68,8.55,0c0,0,13.32-73.41,17.46-106.41"/>
				<g>
					<path class="st21" d="M275.83,270.37c0,0,66.65,1.07,75.37,21.27c10.72,24.83-6.95,118.95-6.95,118.95h-40.17v-84.2
						c0-1.63-1.28-3.1-2.91-3.05c-5.56,0.15-17.98,0.15-33.74,0.15c-41.13,0-21.05-64.01-5.74-68.56"/>
					<path class="st20" d="M275.83,270.37c0,0,66.65,1.07,75.37,21.27c2.91,6.73,4.42,18.19,3.64,31.85"/>
					<path class="st22" d="M309.68,410.59c0,0,0.41-84.52-1.53-89.04c-2.7-6.27-11.91-3.19-33.27-3.19
						c-41.13,0-24.37-58.88-9.06-63.43"/>
					<path class="st22" d="M250.23,280.66c0,0,21.12,0.51,24.31-2.69c3.2-3.2,0-17.7,0-17.7"/>
					<path class="st23" d="M249.71,283.49c0,0,24.11,0.51,27.76-2.69c3.65-3.2,0-17.73,0-17.73"/>
				</g>
				<g>
					<path class="st16" d="M245.64,182.39c0,0-5.06,89.9,2.6,89.9c7.66,0,92.83-0.26,97.82-0.26s-6.69-76.88-23.51-93.12
						c0,0-24.95-27.07-35.94-24.48C275.61,157.02,245.64,182.39,245.64,182.39z"/>
					<line class="st17" x1="340.65" y1="223.28" x2="330.08" y2="179.93"/>
				</g>
				<g>
					<path class="st14" d="M202.56,198.67l-22.89-34.19l-7.09,1.48c5.42,18.25,9,25.47,9,25.47"/>
					<path class="st14" d="M176.23,171.61l-3.65-5.66c0,0-6.79-1.56-9.26-2.82c-2.47-1.26-4.11-3.49-4.8-5.38
						c-0.53-1.45-0.3-5.69,0.32-5.76c1.46-0.16,4.37,5.28,5.74,5.6c1.36,0.32,5.78-0.01,8.22,0.31c4.09,0.54,5.82,4.37,5.82,4.37
						l3.74,6.79"/>
					<polyline class="st15" points="187.6,174.49 183.58,168.66 173.18,173.33 176.48,182.18 					"/>
					<path class="st16" d="M277.11,159.08c0,0-16.75-11.91-34.04,2.72c-16.12,13.63-26.86,41.14-30.46,41.14
						c-2.5,0-18.01-19.78-27.27-31.88l-11.01,5.89c6.94,21.19,22.07,57.24,44.71,57.24c17.76,0,54.24-41.61,54.24-41.61"/>
					<line class="st17" x1="244.18" y1="220.88" x2="271.17" y2="198.37"/>
				</g>
				<g>
					<polyline class="st24" points="278.72,161.21 294.82,178.45 296.92,158.52 					"/>
					<path class="st14" d="M291.65,143.8l4.53,9.92c0,0,1.82,5.68-5.72,8.26c-8.27,2.82-13.34-2.9-13.34-2.9l-1.19-15.57"/>
					<path class="st25" d="M276.68,153.41c0,0,5.96,7.46,13.78,8.57l-5.68,8.43c-4.6-2.59-10.23-12.65-10.23-12.65L276.68,153.41z"
						/>
					<path class="st25" d="M295.7,152.36c0,0-0.95,5.33-5.25,9.62l6.47,4.89c1.49-3.66,1.32-9.36,1.32-9.36L295.7,152.36z"/>
					<path class="st14" d="M298.36,127.78c0,0,4.27,16.36-2.14,20.5c-6.42,4.14-17.58-2.16-18.22-4.21
						c-0.64-2.05-3.56-19.52,0.63-20.83C286.06,120.91,296.17,120.8,298.36,127.78z"/>
					<g>
						<g>
							<path class="st18" d="M298.22,133.09c0.11,0.45-0.17,0.9-0.62,1c-0.45,0.11-0.9-0.17-1-0.62c-0.11-0.45,0.17-0.9,0.62-1
								C297.66,132.36,298.11,132.64,298.22,133.09z"/>
							<g>
								<path class="st18" d="M296.79,128.21c0.28,0.04,1.54,0.17,1.27,0.79c-0.12,0.28-0.56,0.27-0.8,0.25
									c-0.26-0.01-0.52-0.05-0.76,0.03c0.07,0.07,0.12,0.16,0.16,0.25c0.08,0.19-0.54,0.21-0.61,0.21c-0.62,0-1.36-0.11-2.11,0.39
									C294.42,128.37,296.33,128.15,296.79,128.21z"/>
							</g>
							<path class="st18" d="M287.93,135.35c0.03,0.46,0.42,0.81,0.88,0.79c0.46-0.03,0.81-0.42,0.79-0.88
								c-0.03-0.46-0.42-0.81-0.88-0.79C288.26,134.5,287.91,134.89,287.93,135.35z"/>
							<g>
								<path class="st18" d="M285.46,132.05c-0.6,0.32-1.11,0.76-0.97,1.26c0.11,0.4,0.5,0.3,0.75,0.1
									c0.41-0.32,0.87-0.57,1.37-0.73c-0.22,0.18-0.35,0.47-0.33,0.75c1.56-0.15,2.92-1.5,3.09-3.06
									c-0.01,0.11-1.02,0.73-1.17,0.8C287.31,131.59,286.34,131.58,285.46,132.05z"/>
							</g>
						</g>
						<path class="st26" d="M294.06,134.06c0,0,2.28,5.74,1.47,6.24c-0.81,0.5-3.67,0.43-3.67,0.43"/>
					</g>
					<path class="st26" d="M294.15,149.23c0,0-6.5,2.51-12.21-2.05"/>
					<path class="st26" d="M290.45,145.39c0,0,0.58-2.53,4.74-2.53"/>
					<g>
						<path class="st18" d="M301.97,119c-0.07-0.78-0.19-1.61-0.73-2.17c-0.61-0.65-1.6-0.78-2.49-0.79
							c-3.14-0.02-6.27,0.98-8.82,2.81c0.7-0.61,1.39-1.21,2.09-1.82c0.55-0.48,1.79-1.24,1.19-2.14c-0.52-0.79-2.01-0.34-2.77-0.35
							c-3.58-0.04-7.03,1.23-10.33,2.5c-1.63,0.62-3.26,1.26-4.73,2.19c-1.47,0.93-2.78,2.2-3.49,3.79
							c-0.62,1.39-0.74,2.96-0.73,4.48c0.02,2.74,0.45,5.46,0.88,8.17c0.47,2.95,1.18,8.77,5.14,9.13c0.77,0.07,1.61,0.12,2.24-0.34
							c0.62-0.45,0.83-1.26,0.93-2.02c0.15-1.23,0.06-2.49-0.23-3.69c0.74,0.4,1.45,1.08,2.28,0.95c0.28-0.04,0.56-0.19,0.65-0.45
							c0.06-0.17,0.04-0.35,0.02-0.53c-0.31-2.83-0.48-5.64-0.66-8.48c4.06-0.86,8.14-1.6,12.25-2.22c1.82-0.27,3.75-0.57,5.16-1.75
							C301.85,124.59,302.2,121.62,301.97,119z"/>
					</g>
					<g>
						<path class="st14" d="M281,139.84c-0.67-1.66-1.85-3.67-3.7-2.54c-0.65,0.4-1.02,1.25-1.27,2.08
							c-0.85,2.75,1.13,6.99,3.82,6.59c1.31-0.19,2.04-1.75,2.58-3.04"/>
					</g>
				</g>
			</g>
		</g>
		<g>
			<g>
				<path class="st27" d="M526.15,318.49c-0.01-8.91,3.8-17.75,10.28-23.86c3.2-3.01,7.02-5.34,11.14-6.85
					c2.32-0.86,13.45-1.7,13.45-1.7s-1.3,8.49-3.51,12.77C552.34,308.83,542.12,317.21,526.15,318.49"/>
			</g>
			<g>
				<path class="st28" d="M558.88,343.84c4.02-4.93,9.84-8.37,16.1-9.52c6.26-1.15,12.92,0,18.43,3.18c0.18,0.1,0.37,0.23,0.42,0.43
					c0.06,0.24-0.11,0.47-0.28,0.65c-5.17,5.79-13.19,8.91-20.91,8.14C569.24,346.38,562.12,344.89,558.88,343.84"/>
			</g>
			<g>
				<path class="st27" d="M567.82,330.29c0.01-7.77,2.59-14.74,7.15-19.3c4.56-4.56,11.06-6.68,17.99-5.86
					c0.23,0.03,0.48,0.07,0.66,0.28c0.22,0.25,0.23,0.6,0.21,0.89c-0.39,9.35-5.08,17.09-12.23,20.2
					C578.46,327.87,571.33,329.83,567.82,330.29"/>
			</g>
			<g>
				<path class="st28" d="M579.88,316.4c3.08-4.96,6.82-9.5,11.1-13.46c1.72-1.59,3.54-3.11,5.61-4.22
					c6.69-3.59,14.94-2.48,22.13-0.05c-2.86,5.43-6.59,10.75-12.08,13.5c-2.43,1.22-5.09,1.88-7.74,2.47
					C593.63,315.82,585.22,315.7,579.88,316.4"/>
			</g>
			<g>
				<path class="st27" d="M576.05,303.43c-13.38-7.01-15.36-21.63-15.7-27.04c-0.21-3.39,0.01-7.16,2.83-9.6
					C579.77,272.64,584.01,283.86,576.05,303.43"/>
			</g>
			<g>
				<path class="st27" d="M518.39,301.32c1.04-7.12,2-14.77-1.24-21.2c-1.16-2.3-2.81-4.33-4.61-6.18
					c-4.35-4.48-10.05-8.18-16.29-8.19c-1.12,6.67,0.23,13.73,3.75,19.51c3.51,5.78,9.15,10.24,15.59,12.31"/>
			</g>
			<g>
				<path class="st28" d="M557.31,347.9c-7.46-2.49-13.8-8.17-17.09-15.32c-3.29-7.14-3.5-15.65-0.55-22.94
					c0.13-0.32,0.3-0.68,0.64-0.79c0.32-0.1,0.65,0.06,0.94,0.23C552.78,315.71,560.68,335.02,557.31,347.9"/>
			</g>
			<g>
				<path class="st28" d="M525.94,308.57c-2.15-6.23-2.04-13.21,0.32-19.37c2.36-6.15,6.94-11.43,12.7-14.62
					c2.35-1.3,4.9-2.28,6.99-3.98c0.71,3.13,1.18,6.31,1.42,9.51c0.24,3.16,0.23,6.39-0.61,9.45c-2.17,7.91-9.46,13.29-16.78,16.98"
					/>
			</g>
			<g>
				<path class="st28" d="M516.27,307.37c-12.02,1.46-26.81-3.39-33.24-14.71C503.58,282.21,516.27,298.19,516.27,307.37"/>
			</g>
			<g>
				<path class="st28" d="M523.28,334.18c-2.69-9.23-9.79-16.8-18.33-19.56c-8.54-2.77-18.29-0.65-25.2,5.47
					c-0.29,0.25-0.6,0.58-0.57,0.98c0.02,0.24,0.15,0.45,0.28,0.64c4.59,6.64,11.92,10.56,19.41,12.21
					c7.49,1.65,15.23,1.26,22.86,0.69"/>
			</g>
			<g>
				<g>
					<path class="st29" d="M507.83,284.97c6.23,6.23,10.12,14.13,13.02,22.35c3.01,8.51,5.2,17.33,6.95,26.18
						c3.69,18.67,4.66,37.57,6.81,56.43c0.03,0.27,0.44,0.28,0.43,0c-0.82-19.21-2.89-38.7-6.71-57.54
						c-1.87-9.2-4.22-18.39-7.57-27.17c-2.9-7.58-6.79-14.81-12.72-20.45C507.9,284.64,507.7,284.84,507.83,284.97L507.83,284.97z"
						/>
				</g>
			</g>
			<g>
				<g>
					<path class="st29" d="M529.93,341.92c-4.61-7.47-12.26-11.89-20.21-15.12c-8.88-3.61-18.95-5.87-28.58-5.23
						c-0.23,0.02-0.24,0.36,0,0.37c17.52,0.78,37.58,5.03,48.37,20.22C529.69,342.43,530.1,342.2,529.93,341.92L529.93,341.92z"/>
				</g>
			</g>
			<g>
				<g>
					<path class="st29" d="M526.29,324.38c-0.08-7.04-0.81-14.1,0.57-21.07c1.29-6.48,3.88-12.35,7.75-17.69
						c0.11-0.15-0.14-0.35-0.26-0.2c-9.41,10.58-9.52,25.7-8.29,38.96C526.08,324.52,526.3,324.53,526.29,324.38L526.29,324.38z"/>
				</g>
			</g>
			<g>
				<g>
					<path class="st29" d="M498.41,296.52c5.14,0.64,9.69,4.09,13.57,7.29c3.87,3.18,7.33,6.83,11.19,10.02
						c0.16,0.13,0.38-0.08,0.23-0.23c-3.89-3.89-8.07-7.66-12.42-11.03c-3.66-2.83-7.83-5.72-12.57-6.15
						C498.34,296.41,498.34,296.51,498.41,296.52L498.41,296.52z"/>
				</g>
			</g>
			<g>
				<g>
					<path class="st29" d="M552.62,365.5c2.82-14.63,8.7-28.01,18.46-39.37c4.71-5.48,10.12-10.35,16.1-14.4
						c6.27-4.26,12.96-7.15,20.02-9.81c0.29-0.11,0.18-0.55-0.13-0.47c-14.19,3.7-27.27,13.5-36.64,24.54
						c-9.35,11.01-16.44,25-18.18,39.46C552.23,365.66,552.58,365.71,552.62,365.5L552.62,365.5z"/>
				</g>
			</g>
			<g>
				<g>
					<path class="st29" d="M568.88,278.12c7.03,14.8,9.64,31.59,2.52,46.82c-0.14,0.3,0.28,0.56,0.45,0.26
						c8.55-14.22,4.4-33.37-2.61-47.29C569.11,277.67,568.76,277.88,568.88,278.12L568.88,278.12z"/>
				</g>
			</g>
			<path id="XMLID_547_" class="st30" d="M578.03,355.79v11.72c0,46.46-12.23,59.67-12.23,59.67h-37.87c0,0-12.23-13.21-12.23-59.67
				v-11.72H578.03z"/>
		</g>
		<g>
			<g>
				<line class="st11" x1="171.35" y1="427.17" x2="203.47" y2="273.18"/>
				<line class="st11" x1="235.58" y1="427.17" x2="203.47" y2="273.18"/>
			</g>
			<g>
				<line class="st11" x1="495.72" y1="427.17" x2="527.84" y2="273.18"/>
				<line class="st11" x1="559.96" y1="427.17" x2="527.84" y2="273.18"/>
			</g>
			<rect x="172.39" y="263.97" class="st31" width="383.62" height="9.21"/>
			<g>
				<path class="st9" d="M537.52,246.41H401.96c-2.42,0-4.25-2.19-3.83-4.57l15.58-87.61c0.49-2.78,2.91-4.8,5.73-4.8H555
					c2.42,0,4.25,2.19,3.83,4.57l-15.58,87.61C542.76,244.39,540.34,246.41,537.52,246.41z"/>
				<path class="st7" d="M540.68,246.41H405.11c-2.42,0-4.25-2.19-3.83-4.57l15.58-87.61c0.49-2.78,2.91-4.8,5.73-4.8h135.57
					c2.42,0,4.25,2.19,3.83,4.57l-15.58,87.61C545.91,244.39,543.49,246.41,540.68,246.41z"/>
				<path class="st32" d="M515.73,246.41h-78.3c-1.4,0-2.45-1.26-2.21-2.64l9-50.6c0.29-1.6,1.68-2.77,3.31-2.77h78.3
					c1.4,0,2.45,1.26,2.21,2.64l-9,50.6C518.75,245.24,517.36,246.41,515.73,246.41z"/>
				<path class="st33" d="M517.61,246.41h-78.3c-1.4,0-2.45-1.26-2.21-2.64l9-50.6c0.29-1.6,1.68-2.77,3.31-2.77h78.3
					c1.4,0,2.45,1.26,2.21,2.64l-9,50.6C520.63,245.24,519.24,246.41,517.61,246.41z"/>
				<rect x="468.48" y="216.65" class="st13" width="31.78" height="29.76"/>
				<path class="st9" d="M498.43,216.65h-29.96v8.55l8.18,33.94h31.8L498.43,216.65z M490.74,250.08c-3.56,0-7.33-4.15-8.41-9.28
					c-1.08-5.12,0.93-9.28,4.49-9.28s7.33,4.15,8.41,9.28C496.31,245.93,494.3,250.08,490.74,250.08z"/>
				<path class="st9" d="M450.95,259.14h71.18v4.83h-76.02l0,0C446.12,261.3,448.28,259.14,450.95,259.14z"/>
				<rect x="465.23" y="259.14" class="st7" width="56.91" height="4.83"/>
				<path class="st7" d="M500.27,216.65h-31.8l10.02,42.49h31.8L500.27,216.65z M492.47,250.08c-3.56,0-7.33-4.15-8.41-9.28
					c-1.08-5.12,0.93-9.28,4.49-9.28c3.56,0,7.33,4.15,8.41,9.28C498.04,245.93,496.03,250.08,492.47,250.08z"/>
				<g class="st34">
					<polygon class="st13" points="426.02,158.06 424.14,168.65 426.02,168.65 427.9,158.06 					"/>
					<polygon class="st13" points="431.47,158.06 429.59,168.65 431.47,168.65 433.35,158.06 					"/>
					<polygon class="st13" points="436.92,158.06 435.04,168.65 436.92,168.65 438.8,158.06 					"/>
					<polygon class="st13" points="442.37,158.06 440.49,168.65 442.37,168.65 444.25,158.06 					"/>
					<polygon class="st13" points="447.82,158.06 445.94,168.65 447.82,168.65 449.7,158.06 					"/>
				</g>
				<g class="st34">
					<polygon class="st13" points="497.55,158.06 495.67,168.65 497.55,168.65 499.43,158.06 					"/>
					<polygon class="st13" points="503.28,158.06 501.39,168.65 503.28,168.65 505.16,158.06 					"/>
					<polygon class="st13" points="509,158.06 507.12,168.65 509,168.65 510.89,158.06 					"/>
					<polygon class="st13" points="514.73,158.06 512.85,168.65 514.73,168.65 516.61,158.06 					"/>
					<polygon class="st13" points="520.46,158.06 518.58,168.65 520.46,168.65 522.34,158.06 					"/>
					<polygon class="st13" points="526.19,158.06 524.3,168.65 526.19,168.65 528.07,158.06 					"/>
					<polygon class="st13" points="531.91,158.06 530.03,168.65 531.91,168.65 533.8,158.06 					"/>
					<polygon class="st13" points="537.64,158.06 535.76,168.65 537.64,168.65 539.52,158.06 					"/>
					<polygon class="st13" points="543.37,158.06 541.48,168.65 543.37,168.65 545.25,158.06 					"/>
					<polygon class="st13" points="549.09,158.06 547.21,168.65 549.09,168.65 550.98,158.06 					"/>
				</g>
			</g>
			<g>
				<g class="st35">
					<linearGradient id="SVGID_1_" gradientUnits="userSpaceOnUse" x1="293.1257" y1="239.9645" x2="293.1257" y2="212.3599">
						<stop  offset="0" style="stop-color:#FFFFFF;stop-opacity:0.1"/>
						<stop  offset="1" style="stop-color:#FFFFFF;stop-opacity:0.4"/>
					</linearGradient>
					<path class="st36" d="M280.45,239.96c0,0,0.88-0.16,1.24-0.66c0.74-1.03-0.49-2.12-1.29-2.64c-1.03-0.66-2.44-0.88-2.94-2.14
						c-0.56-1.42,0.41-3,1.58-3.78c0.99-0.65,2.15-0.98,3.26-1.4c1.24-0.46,2.49-1.21,3.21-2.37c0.9-1.45,0.72-3.31,0.84-4.94
						c0.46-6.38,6.99-9.55,12.48-9.68c2.75-0.07,6.95,0.92,8.77,3.05c0.61,0.72,1.08,1.57,1.25,2.5c0.27,1.44-0.29,2.77-1.22,3.84
						c-0.94,1.08-2.24,1.71-3.27,2.68c-1.07,1-0.31,2.06-0.55,3.26c-0.27,1.33-1.16,1.9-2.32,2.54c-2.44,1.36-5.31,1.7-7.96,2.44
						c-0.83,0.23-1.66,0.51-2.33,1.05c-0.87,0.7-1.36,1.74-2.01,2.64c-1.2,1.63-3.01,2.8-4.99,3.2"/>
				</g>
				<g>
					<g>
						<path class="st37" d="M295.74,256.03h-5.21v-2.49h5.21c1.68,0,3.05-1.37,3.05-3.05v-4.29c0-1.68-1.37-3.05-3.05-3.05h-5.21
							v-2.49h5.21c3.05,0,5.53,2.48,5.53,5.53v4.29C301.27,253.55,298.79,256.03,295.74,256.03z"/>
					</g>
				</g>
				<path class="st37" d="M288.31,262.57h-8.79c-3.38,0-6.12-2.74-6.12-6.12v-19.29h21.04v19.29
					C294.43,259.83,291.69,262.57,288.31,262.57z"/>
				<path class="st33" d="M269.99,259.02c0,0,0.2,4.95,7.89,4.95h12.06c7.69,0,7.89-4.95,7.89-4.95H269.99z"/>
			</g>
			<g id="XMLID_30_">
				<g id="XMLID_96_">
					<g>
						<rect id="XMLID_143_" x="327.75" y="261.99" class="st9" width="111.28" height="1.98"/>
						<rect id="XMLID_142_" x="331.56" y="260.4" class="st9" width="7.97" height="1.6"/>
						<rect id="XMLID_141_" x="343.63" y="260.4" class="st9" width="7.97" height="1.6"/>
						<rect id="XMLID_140_" x="355.7" y="260.4" class="st9" width="7.97" height="1.6"/>
						<rect id="XMLID_139_" x="367.77" y="260.4" class="st9" width="7.97" height="1.6"/>
						<rect id="XMLID_138_" x="379.84" y="260.4" class="st9" width="7.97" height="1.6"/>
						<rect id="XMLID_137_" x="391.91" y="260.4" class="st9" width="7.97" height="1.6"/>
						<rect id="XMLID_136_" x="403.98" y="260.4" class="st9" width="7.97" height="1.6"/>
						<rect id="XMLID_135_" x="416.05" y="260.4" class="st9" width="7.97" height="1.6"/>
						<rect id="XMLID_134_" x="428.13" y="260.4" class="st9" width="7.97" height="1.6"/>
					</g>
				</g>
				<g id="XMLID_51_">
					<g>
						<rect id="XMLID_133_" x="329.21" y="261.99" class="st7" width="111.28" height="1.98"/>
						<rect id="XMLID_132_" x="333.01" y="260.4" class="st7" width="7.97" height="1.6"/>
						<rect id="XMLID_131_" x="345.08" y="260.4" class="st7" width="7.97" height="1.6"/>
						<rect id="XMLID_129_" x="357.16" y="260.4" class="st7" width="7.97" height="1.6"/>
						<rect id="XMLID_127_" x="369.23" y="260.4" class="st7" width="7.97" height="1.6"/>
						<rect id="XMLID_122_" x="381.3" y="260.4" class="st7" width="7.97" height="1.6"/>
						<rect id="XMLID_121_" x="393.37" y="260.4" class="st7" width="7.97" height="1.6"/>
						<rect id="XMLID_120_" x="405.44" y="260.4" class="st7" width="7.97" height="1.6"/>
						<rect id="XMLID_119_" x="417.51" y="260.4" class="st7" width="7.97" height="1.6"/>
						<rect id="XMLID_118_" x="429.58" y="260.4" class="st7" width="7.97" height="1.6"/>
					</g>
				</g>
			</g>
		</g>
		<g>
			<g>
				<path class="st27" d="M170.86,338.62c1.38-5.49,0.77-11.46-1.7-16.55c-2.47-5.09-6.78-9.27-11.95-11.57
					c-2.11-0.94-4.37-1.59-6.27-2.89c-0.37,2.73-0.54,5.49-0.51,8.24c0.03,2.73,0.27,5.49,1.22,8.04
					c2.44,6.61,9.08,10.67,15.62,13.29"/>
			</g>
			<g>
				<g>
					<path class="st29" d="M171.66,356.34c0.2-12.79,0.37-27.39-9.69-36.91c-0.16-0.15-0.38,0.07-0.24,0.24
						c4.51,5.24,7.74,11.58,8.7,18.48c0.84,6.03,0.5,12.14,1,18.19C171.45,356.48,171.66,356.48,171.66,356.34L171.66,356.34z"/>
				</g>
			</g>
			<g>
				<path class="st27" d="M155.32,373.11c-0.96-7.59-5.17-14.71-11.36-19.21c-3.05-2.22-6.56-3.78-10.24-4.63
					c-2.07-0.48-11.64,0.02-11.64,0.02s2.03,7.09,4.38,10.5C131.95,367.73,141.57,373.76,155.32,373.11"/>
			</g>
			<g>
				<path class="st28" d="M146.95,348.66c-0.25-4.59-1.09-9.15-2.5-13.51c-0.57-1.75-1.23-3.49-2.21-5.04
					c-3.16-5.02-9.07-7.36-14.76-8.39c-0.07,4.84,0.48,9.93,3.15,13.91c1.18,1.76,2.72,3.22,4.27,4.63
					C137.97,343.07,143.63,346.16,146.95,348.66"/>
			</g>
			<g>
				<path class="st28" d="M179.25,331.94c-0.89-6.12-1.72-12.69,1.07-18.21c1-1.98,2.42-3.72,3.96-5.31
					c3.74-3.85,8.63-7.03,13.99-7.04c0.96,5.73-0.2,11.79-3.22,16.76C192.04,323.11,184.78,330.15,179.25,331.94"/>
			</g>
			<g>
				<path class="st28" d="M169.42,367.48c5.69,1.18,11.84-0.09,16.6-3.43s8.04-8.69,8.87-14.44c0.04-0.25,0.06-0.55-0.11-0.74
					c-0.16-0.18-0.44-0.2-0.68-0.2C184.26,348.61,172.05,358,169.42,367.48"/>
			</g>
			<g>
				<path class="st28" d="M149.19,345.36c8.1-4.56,13.31-13.7,13.46-23.62c-5.85-0.32-10.25,3.27-12.8,6.38
					C146.31,332.43,146.01,340.02,149.19,345.36"/>
			</g>
			<g>
				<path class="st28" d="M155.08,361.38c-2.16-5.39-1.48-11.83,1.76-16.65c3.24-4.82,8.95-7.88,14.76-7.9
					c0.24,0,0.52,0.02,0.66,0.22c0.08,0.12,0.09,0.27,0.1,0.41c0.22,4.98-1.97,9.83-5.11,13.7c-3.14,3.87-7.18,6.89-11.23,9.78"/>
			</g>
			<g>
				<g>
					<path class="st29" d="M188.13,317.7c-10.79,10.25-14.57,26.69-17.44,40.74c-3.31,16.23-5.17,33.06-5.78,49.61
						c-0.01,0.28,0.4,0.27,0.43,0c1.94-16.2,2.7-32.44,5.88-48.49c2.83-14.32,6.47-30.94,17.11-41.65
						C188.46,317.78,188.26,317.58,188.13,317.7L188.13,317.7z"/>
				</g>
			</g>
			<g>
				<g>
					<path class="st29" d="M155.07,369.95c-0.17-4.86,0.65-9.24,1.75-13.94c0.05-0.19-0.24-0.33-0.34-0.14
						c-2.03,3.92-2.62,9.83-1.9,14.15C154.63,370.29,155.08,370.23,155.07,369.95L155.07,369.95z"/>
				</g>
			</g>
			<g>
				<g>
					<path class="st29" d="M155.74,328.6c-6.48,5.87-8.13,18.17-5.48,26.14c0.06,0.2,0.36,0.12,0.31-0.09
						c-1.92-8.32-1.29-19.63,5.25-25.98C155.86,328.63,155.79,328.56,155.74,328.6L155.74,328.6z"/>
				</g>
			</g>
			<g>
				<g>
					<path class="st29" d="M158.1,398.14c0.35-11.28-1.51-23.12-4.61-33.94c-3.06-10.67-7.97-22.25-16.11-30.08
						c-0.23-0.22-0.53,0.1-0.34,0.34c3.63,4.49,7.01,8.93,9.68,14.09c2.72,5.26,4.82,10.84,6.42,16.54
						c3.06,10.87,3.93,21.84,4.6,33.05C157.74,398.38,158.09,398.38,158.1,398.14L158.1,398.14z"/>
				</g>
			</g>
			<path id="XMLID_5_" class="st30" d="M191.19,378.48v7.99c0,31.69-10.51,40.7-10.51,40.7h-32.53c0,0-10.51-9.01-10.51-40.7v-7.99
				H191.19z"/>
		</g>
		<line class="st38" x1="119.78" y1="427.17" x2="630.22" y2="427.17"/>
	</g>
	<text transform="matrix(1 0 0 1 293.6179 473.2998)" class="st6 st39 st40">Page Not Found!</text>
</g>
<g id="DESIGNED_BY_FREEPIK">
</g>
</svg>
