<?xml version="1.0" encoding="utf-8"?>
<!-- Generator: Adobe Illustrator 24.0.2, SVG Export Plug-In . SVG Version: 6.00 Build 0)  -->
<svg version="1.1" id="Layer_1" xmlns="http://www.w3.org/2000/svg" xmlns:xlink="http://www.w3.org/1999/xlink" x="0px" y="0px"
	 viewBox="0 0 50 50" style="enable-background:new 0 0 50 50;" xml:space="preserve">
<style type="text/css">
	.st0{fill:#FF8040;}
	.st1{fill:#FCE900;}
	.st2{fill:#FEBF00;}
	.st3{fill:#FF503A;}
</style>
<g>
	<path class="st0" d="M35.8,31.5c-1.5-1.6-1.5-4.1,0-5.6l7.4-7.3c1.6-1.5,4.1-1.5,5.6,0l0,0c1.5,1.6,1.5,4.1,0,5.6l-7.4,7.4
		C39.8,33.1,37.3,33.1,35.8,31.5L35.8,31.5z"/>
	<path class="st1" d="M13.8,12.8c2.5-1.2,5.5-0.2,6.6,2.3l5.7,11.8c1.2,2.5,0.2,5.5-2.3,6.6l0,0c-2.5,1.2-5.5,0.2-6.6-2.3l-5.7-11.8
		C10.3,17,11.4,14,13.8,12.8L13.8,12.8z"/>
	<path class="st1" d="M44.6,28.6c0,3-2.4,5.4-5.4,5.4H21c-3,0-5.4-2.4-5.4-5.4l0,0c0-3,2.4-5.4,5.4-5.4h18.3
		C42.2,23.2,44.6,25.6,44.6,28.6L44.6,28.6z"/>
	<path class="st2" d="M22.6,23.7c2.6,1,3.8,3.9,2.8,6.4l-4.8,12.2c-1,2.6-3.9,3.8-6.4,2.8l0,0c-2.6-1-3.8-3.9-2.8-6.4l4.8-12.2
		C17.2,23.9,20.1,22.7,22.6,23.7L22.6,23.7z"/>
	<path class="st2" d="M20.7,8.4c1.4,2.4,0.6,5.4-1.7,6.8L7.6,21.8c-2.4,1.4-5.4,0.6-6.8-1.7l0,0c-1.4-2.4-0.6-5.4,1.7-6.8l11.3-6.6
		C16.2,5.2,19.2,6,20.7,8.4L20.7,8.4z"/>
	<path class="st3" d="M38.3,23.1c2.6-0.8,5.4,0.8,6.2,3.4L48,39.1c0.8,2.6-0.8,5.4-3.4,6.2l0,0c-2.6,0.8-5.4-0.8-6.2-3.4l-3.6-12.6
		C34.1,26.6,35.6,23.9,38.3,23.1L38.3,23.1z"/>
	<path class="st1" d="M12,6.8c0.9-2,3.2-2.8,5.3-1.9l9.5,4.4c2,0.9,2.8,3.2,1.9,5.3l0,0c-0.9,2-3.2,2.8-5.3,1.9l-9.5-4.4
		C12,11.2,11.1,8.8,12,6.8L12,6.8z"/>
</g>
</svg>
