<?xml version="1.0" encoding="utf-8"?>
<!-- Generator: Adobe Illustrator 24.0.2, SVG Export Plug-In . SVG Version: 6.00 Build 0)  -->
<svg version="1.1" id="Layer_1" xmlns="http://www.w3.org/2000/svg" xmlns:xlink="http://www.w3.org/1999/xlink" x="0px" y="0px"
	 viewBox="0 0 218.6 81" style="enable-background:new 0 0 218.6 81;" xml:space="preserve">
<style type="text/css">
	.st0{fill:#00B0A1;}
	.st1{fill:#00C4A8;}
	.st2{fill:#00AFA0;}
</style>
<path class="st0" d="M90.4,42.9c-0.1-1.9-0.5-3.1-1.3-3.8c-0.7-0.7-1.6-1-2.6-1c-1.1,0-2.1,0.5-2.8,1.5c-0.5,0.7-0.8,1.8-1,3.2
	c-0.2,1.2-0.3,2.8-0.3,4.6c0,1.8-0.1,4-0.1,6.5c0,2,0,3.9,0.1,5.6c0.1,1.7,0.1,3.2,0.2,4.5c0.1,1.9,0.5,3.1,1.2,3.8
	c0.7,0.7,1.6,1.1,2.7,1.1c0.5,0,0.9,0,1.2-0.1c0.6-0.1,1.1-0.4,1.6-0.9c0.4-0.4,0.6-1,0.8-1.7c0.2-0.6,0.2-1.3,0.3-2.3
	c0.1-1.8,0.1-3.5,0.2-5.1c0.1-1.6,0.1-3.3,0.1-5C90.7,50.3,90.6,46.6,90.4,42.9z"/>
<path class="st0" d="M87.2,65.8C87.2,65.9,87.2,65.9,87.2,65.8C87.2,65.9,87.2,65.9,87.2,65.8z"/>
<path class="st0" d="M89.9,27.6c-1-0.9-2.1-1.4-3.3-1.4c-1.2,0-2.4,0.5-3.3,1.3c-1,0.9-1.5,2-1.5,3.3c0,1.3,0.5,2.5,1.5,3.4
	c0.9,0.9,2,1.3,3.1,1.3c1.3,0,2.4-0.4,3.4-1.3c1-0.9,1.6-2.1,1.6-3.3C91.4,29.7,90.8,28.5,89.9,27.6z"/>
<path class="st0" d="M124.2,62.2c-0.2-0.5-0.5-0.9-0.8-1.3c-0.2-0.3-0.5-0.7-0.7-1c-0.1-0.2-0.2-0.3-0.2-0.5c0-1.8,0-4.2,0.1-7.1
	c0.1-3,0.1-6.4,0.1-10v-2.6c0-0.8,0-1.6,0-2.6c0-0.9,0-1.9,0-2.8c0-0.9,0-1.8,0-2.6c0-0.8,0-1.5-0.1-1.9c-0.1-1.4-0.4-2.4-0.9-3.1
	c-0.6-0.8-1.7-1.3-3.1-1.3c-1.4,0-2.4,0.4-3,1.2c-0.6,0.7-0.9,1.8-1,3.3c0,0.5-0.1,1.3-0.1,2.3c0,1,0,2-0.1,3.2c0,1.2,0,2.4,0,3.6
	v0.6c-0.1,0-0.2-0.1-0.3-0.1c-1.2-0.5-2.7-0.7-4.6-0.7c-2.2,0-4.2,0.3-6,1c-1.9,0.7-3.5,1.7-4.9,3c-1.4,1.3-2.5,3-3.2,4.9
	c-0.7,1.9-1.1,4.1-1.1,6.5c0,2.9,0.5,5.3,1.5,7.2c1,1.9,2.2,3.5,3.7,4.6c1.4,1.1,3,1.9,4.7,2.4c1.6,0.4,3.1,0.7,4.4,0.7
	c1.1,0,2.2-0.1,3.1-0.4c0.9-0.2,1.8-0.5,2.6-0.9c0.8-0.4,1.5-0.8,2.1-1.2c0,0,0,0,0,0c0.1,0.2,0.3,0.4,0.4,0.6
	c1.1,1.3,2.6,1.7,4.5,1.1c0.5-0.2,1.1-0.4,1.6-0.7c0.5-0.4,1-0.8,1.3-1.3c0.4-0.6,0.6-1.3,0.6-2.1C124.7,63.4,124.5,62.8,124.2,62.2
	z M109.3,46.8c2.5,0,5.4,0.8,5.4,7.2c0,2.6-0.5,4.5-1.4,5.5c-0.9,1-2.2,1.5-3.9,1.5c-1.2,0-2.2-0.2-3.1-0.6
	c-0.9-0.4-1.5-0.9-2.1-1.6c-0.6-0.7-1-1.5-1.3-2.3c-0.3-0.9-0.4-1.9-0.4-2.9c0-1.2,0.2-2.2,0.6-3c0.4-0.8,0.9-1.5,1.5-2.1
	c0.6-0.5,1.3-0.9,2.1-1.2C107.5,46.9,108.4,46.8,109.3,46.8z"/>
<path class="st0" d="M156.1,62.2c-0.2-0.4-0.5-0.9-0.8-1.3c-0.2-0.3-0.5-0.6-0.7-1c-0.1-0.2-0.2-0.3-0.2-0.5c0-1.8,0-4.2,0.1-7.1
	c0.1-3,0.1-6.4,0.1-10v-2.6c0-0.8,0-1.6,0-2.6c0-0.9,0-1.9,0-2.8c0-0.9,0-1.8,0-2.6c0-0.8,0-1.5-0.1-1.9c-0.1-1.4-0.4-2.4-0.9-3.1
	c-0.6-0.8-1.7-1.3-3.1-1.3c-1.4,0-2.4,0.4-3,1.2c-0.6,0.7-0.9,1.8-1,3.3c0,0.5-0.1,1.3-0.1,2.3c0,1,0,2-0.1,3.2c0,1.2,0,2.4,0,3.6
	v0.6c-0.1,0-0.2-0.1-0.3-0.1c-1.2-0.5-2.7-0.7-4.6-0.7c-2.2,0-4.2,0.3-6,1c-1.9,0.7-3.5,1.7-4.9,3c-1.4,1.3-2.5,3-3.2,4.9
	c-0.7,1.9-1.1,4.1-1.1,6.5c0,2.9,0.5,5.3,1.5,7.2c1,1.9,2.2,3.5,3.7,4.6c1.4,1.1,3,1.9,4.7,2.4c1.6,0.4,3.1,0.7,4.4,0.7
	c1.1,0,2.2-0.1,3.1-0.4c0.9-0.2,1.8-0.5,2.6-0.9c0.8-0.4,1.5-0.8,2.1-1.2c0,0,0,0,0,0c0.1,0.2,0.3,0.4,0.4,0.6
	c1.1,1.3,2.6,1.7,4.5,1.1c0.5-0.2,1.1-0.4,1.6-0.7c0.5-0.4,1-0.8,1.4-1.4c0.4-0.6,0.6-1.3,0.6-2.1C156.6,63.4,156.4,62.8,156.1,62.2
	z M141.2,46.8c2.5,0,5.4,0.8,5.4,7.2c0,2.6-0.5,4.5-1.4,5.5c-0.9,1-2.2,1.5-3.9,1.5c-1.2,0-2.2-0.2-3.1-0.6
	c-0.9-0.4-1.5-0.9-2.1-1.6c-0.6-0.7-1-1.5-1.3-2.3c-0.3-0.9-0.4-1.9-0.4-2.9c0-1.2,0.2-2.2,0.6-3c0.4-0.8,0.9-1.5,1.5-2.1
	c0.6-0.5,1.3-0.9,2.1-1.2C139.4,46.9,140.3,46.8,141.2,46.8z"/>
<path class="st0" d="M187,47.4c-0.7-1.8-1.7-3.4-2.9-4.7c-1.3-1.3-2.8-2.3-4.6-3c-1.8-0.7-3.8-1-6-1c-2.3,0-4.4,0.4-6.3,1.1
	c-1.9,0.7-3.6,1.8-5,3.2c-1.4,1.4-2.4,3-3.2,4.9c-0.7,1.9-1.1,3.9-1.1,6.1c0,2,0.3,3.9,0.9,5.8c0.6,1.8,1.6,3.5,2.8,4.9
	c1.3,1.4,2.8,2.6,4.7,3.4c1.8,0.8,4,1.3,6.3,1.3c2.2,0,4.2-0.4,6.1-1.1c1.9-0.7,3.5-1.8,4.9-3.2c1.4-1.4,2.4-3.1,3.2-5
	c0.8-1.9,1.1-4.1,1.1-6.6C188,51.2,187.6,49.2,187,47.4z M172.9,61.4c-2.1,0-3.7-0.6-4.7-1.9c-1.1-1.4-1.7-3.1-1.7-5.4
	c0-1.1,0.2-2.2,0.5-3.1c0.3-0.9,0.7-1.7,1.3-2.3c0.6-0.6,1.2-1.1,2.1-1.5c0.8-0.4,1.8-0.6,3-0.6c1.1,0,2.1,0.2,2.9,0.5
	c0.8,0.3,1.4,0.8,1.8,1.4c0.5,0.6,0.9,1.4,1.1,2.2c0.3,0.9,0.4,1.9,0.4,3c0,1-0.1,2-0.4,3c-0.2,0.9-0.6,1.7-1.2,2.4
	c-0.5,0.7-1.2,1.2-2,1.6C175.1,61.2,174.1,61.4,172.9,61.4z"/>
<path class="st0" d="M214.3,63.6c-0.1-0.6-0.4-1.2-1-1.6c-0.4-0.4-1-0.6-1.7-0.8c-0.6-0.2-1.3-0.3-2.3-0.3c-1.7-0.1-3.2-0.1-4.5-0.2
	c-1.2,0-2.6-0.1-4-0.1c0.8-1,1.6-1.9,2.5-2.9c1.6-1.9,3.2-3.7,4.6-5.5c1.4-1.7,2.6-3.4,3.6-4.8c1.1-1.7,1.6-3.1,1.6-4.2
	c0-0.9-0.3-1.6-0.7-2.2c-0.4-0.5-0.9-0.9-1.5-1.1c-0.5-0.2-1.1-0.4-1.6-0.5c-0.5-0.1-1-0.1-1.4-0.1c-1.5-0.1-3-0.1-4.4-0.2
	c-1.4-0.1-2.8-0.1-4.3-0.1c-0.6,0-1.1,0-1.4,0L197,39c-0.3,0-0.6,0.1-1,0.1c-0.2,0-0.6,0.1-1.3,0.1c-1.9,0.1-3.1,0.6-3.8,1.3
	c-0.6,0.7-1,1.6-1,2.6c0,1,0.2,1.7,0.6,2.3c0.5,0.7,1.2,1.1,2.2,1.4c0.7,0.2,1.6,0.3,2.8,0.3c1,0,2.3,0.1,3.8,0.1h2
	c-0.4,0.4-0.8,0.8-1.2,1.3c-1.2,1.3-2.4,2.8-3.7,4.4c-0.4,0.6-1,1.3-1.8,2.3c-0.8,1-1.6,2.1-2.4,3.2c-0.8,1.2-1.5,2.4-2.1,3.5
	c-0.7,1.3-1,2.5-1,3.6c0,0.8,0.2,1.5,0.6,2c0.4,0.6,1.1,0.9,2.2,1.1c0.7,0.1,1.8,0.2,3.1,0.3c1.3,0,3.1,0.1,5.2,0.1
	c1.8,0,3.5,0,5-0.1c1.5-0.1,2.8-0.1,4-0.2c1.9-0.1,3.1-0.5,3.8-1.2c0.7-0.7,1.1-1.6,1.1-2.7C214.4,64.3,214.4,63.9,214.3,63.6z"/>
<g>
	<path class="st1" d="M55.7,49.9c-2.2-2.3-2.2-5.9,0-8.1l10.7-10.6c2.3-2.2,5.9-2.2,8.1,0l0,0c2.2,2.3,2.2,5.9,0,8.1L63.8,50
		C61.5,52.2,57.9,52.2,55.7,49.9L55.7,49.9z"/>
	<path class="st1" d="M24,22.8c3.6-1.7,7.9-0.3,9.6,3.3l8.3,17c1.7,3.6,0.3,7.9-3.3,9.6l0,0c-3.6,1.7-7.9,0.3-9.6-3.3l-8.3-17
		C18.9,28.9,20.4,24.6,24,22.8L24,22.8z"/>
	<path class="st1" d="M68.5,45.7c0,4.3-3.5,7.8-7.8,7.8H34.4c-4.3,0-7.8-3.5-7.8-7.8l0,0c0-4.3,3.5-7.8,7.8-7.8h26.4
		C65,37.9,68.5,41.4,68.5,45.7L68.5,45.7z"/>
	<path class="st2" d="M36.7,38.6c3.7,1.5,5.5,5.7,4,9.3l-7,17.6c-1.5,3.7-5.7,5.5-9.3,4l0,0c-3.7-1.5-5.5-5.7-4-9.3l7-17.6
		C28.8,38.9,33,37.1,36.7,38.6L36.7,38.6z"/>
	<path class="st2" d="M33.9,16.4c2,3.4,0.9,7.8-2.5,9.9L15,35.9c-3.4,2-7.8,0.9-9.9-2.5l0,0c-2-3.4-0.9-7.8,2.5-9.9L24,13.9
		C27.4,11.9,31.8,13,33.9,16.4L33.9,16.4z"/>
	<path class="st2" d="M59.3,37.8c3.8-1.1,7.8,1.1,8.9,4.9l5.2,18.2c1.1,3.8-1.1,7.8-4.9,8.9l0,0c-3.8,1.1-7.8-1.1-8.9-4.9l-5.2-18.2
		C53.3,42.8,55.5,38.9,59.3,37.8L59.3,37.8z"/>
	<path class="st1" d="M21.3,14.2c1.3-2.9,4.7-4.1,7.6-2.8l13.7,6.3c2.9,1.3,4.1,4.7,2.8,7.6l0,0c-1.3,2.9-4.7,4.1-7.6,2.8l-13.7-6.3
		C21.3,20.5,20,17.1,21.3,14.2L21.3,14.2z"/>
</g>
</svg>
